<svg width="29" height="28" viewBox="0 0 29 28" fill="none" xmlns="http://www.w3.org/2000/svg">
<path d="M11.75 2C14.2696 2 16.6859 3.00089 18.4675 4.78249C20.2491 6.56408 21.25 8.98044 21.25 11.5C21.25 13.582 20.58 15.507 19.445 17.073L25.811 23.439C26.0863 23.7102 26.2462 24.0772 26.2575 24.4635C26.2688 24.8498 26.1306 25.2255 25.8717 25.5124C25.6128 25.7993 25.2532 25.9752 24.8678 26.0034C24.4824 26.0317 24.101 25.9101 23.803 25.664L23.689 25.561L17.323 19.195C15.7032 20.3713 13.7519 21.0033 11.75 21C9.23044 21 6.81408 19.9991 5.03249 18.2175C3.25089 16.4359 2.25 14.0196 2.25 11.5C2.25 8.98044 3.25089 6.56408 5.03249 4.78249C6.81408 3.00089 9.23044 2 11.75 2V2ZM11.75 5C10.0261 5 8.37279 5.68482 7.15381 6.90381C5.93482 8.12279 5.25 9.77609 5.25 11.5C5.25 13.2239 5.93482 14.8772 7.15381 16.0962C8.37279 17.3152 10.0261 18 11.75 18C13.4739 18 15.1272 17.3152 16.3462 16.0962C17.5652 14.8772 18.25 13.2239 18.25 11.5C18.25 9.77609 17.5652 8.12279 16.3462 6.90381C15.1272 5.68482 13.4739 5 11.75 5V5Z" fill="#A7B3D7"/>
</svg>
